<?xml version="1.0" encoding="UTF-8"?>
<svg width="71px" height="36px" viewBox="0 0 71 36" version="1.1" xmlns="http://www.w3.org/2000/svg" xmlns:xlink="http://www.w3.org/1999/xlink">
    <!-- Generator: Sketch 51.2 (57519) - http://www.bohemiancoding.com/sketch -->
    <title>wsj-logo</title>
    <desc>Created with Sketch.</desc>
    <defs></defs>
    <g id="Final" stroke="none" stroke-width="1" fill="none" fill-rule="evenodd">
        <g id="1440-copy-4" transform="translate(-296.000000, -719.000000)" fill="#113A50">
            <g id="Group-6" transform="translate(296.000000, 709.000000)">
                <path d="M9.54948263,45.8984561 L11.6538761,45.8984561 L16.0893601,22.3068888 L20.9535949,45.8984561 L22.8029104,45.8984561 L29.0682638,15.9376485 C29.7325294,12.7897862 30.0938899,11.7048694 31.3267669,11.3948931 L32.3045659,11.1330166 L32.3045659,10.2030879 L25.0614135,10.2030879 L25.0614135,11.1330166 L26.1401809,11.3414489 C27.6812772,11.6514252 28.0373235,12.5813539 27.3199167,16.4026128 L23.579552,34.9418757 L19.768545,15.317696 C19.3593574,13.3028504 19.1042794,11.6514252 20.7994853,11.3414489 L21.9260798,11.1330166 L21.9260798,10.2030879 L12.0152366,10.2030879 L12.0152366,11.1330166 L12.6848164,11.2880048 C13.7104425,11.5498812 13.8645521,12.1698337 14.2737398,14.1312352 L15.2480017,18.8312425 L12.2391144,34.7951715 L8.31660563,15.317696 C7.85427676,13.2013064 7.70016713,11.597981 9.34223176,11.2880048 L10.118094,11.1330166 L10.118094,10.2030879 L-2.84217094e-14,10.2030879 L-2.84217094e-14,11.1330166 L0.972484876,11.3948931 C1.89714263,11.6514252 2.41261275,12.1163895 3.02905125,14.9542755 L9.54948263,45.8984561 Z M50.5453468,36.5457245 C50.5453468,25.9584323 38.9871249,23.1686461 38.9871249,15.4726841 C38.9871249,13.8212589 39.6035634,11.3414489 42.1702858,11.3414489 C45.8689168,11.3414489 47.2559034,16.1460808 47.8723419,21.9821853 L48.8501409,21.9821853 L48.8501409,10.2030879 L48.2337024,10.2030879 C47.9786244,11.3414489 47.5162955,11.8598575 46.8467158,11.8598575 C45.66698,11.8598575 45.0505415,10 42.223427,10 C37.8605304,10 34.8793063,13.6662708 34.8793063,18.4709026 C34.8793063,27.1983373 46.4375281,30.8646081 46.4375281,38.9239905 C46.4375281,42.5902613 44.7423223,44.6585511 42.4306779,44.6585511 C38.9871249,44.6585511 36.7286218,40.5754157 36.1121833,34.0178147 L35.1343843,34.0178147 L35.1343843,45.7915677 L35.7508228,45.7915677 C36.2662929,44.0866983 36.9358726,43.9317102 37.4991699,43.9317102 C38.4769689,43.9317102 39.502595,46 42.478505,46 C47.0539666,46 50.5453468,42.023753 50.5453468,36.5457245 L50.5453468,36.5457245 Z M68.4864189,13.6128266 C68.4864189,12.1698337 68.8424652,11.7048694 69.8734055,11.4429929 L71,11.1330166 L71,10.2030879 L60.37175,10.2030879 L60.37175,11.1330166 L61.6524541,11.4429929 C62.6780802,11.7048694 63.2466916,12.0629454 63.2466916,13.5647268 L63.2466916,38.4055819 C63.2466916,41.8687648 62.9384724,44.6585511 60.37175,44.6585511 C58.7243712,44.6585511 57.4914942,43.3652019 57.5446355,42.4352732 C57.6987451,40.8319477 60.37175,40.9388361 60.5736867,38.3574822 C60.7277964,36.4976247 59.5480606,35.7226841 58.4692932,35.567696 C56.8750557,35.3592637 54.9247719,36.7007126 54.8716306,39.3889549 C54.8184894,42.8467933 57.0823066,46 60.9350472,46 C65.1969755,46 68.4864189,43.1086698 68.4864189,37.5825416 L68.4864189,13.6128266 Z" id="wsj-logo"></path>
            </g>
        </g>
    </g>
</svg>