<?xml version="1.0" encoding="UTF-8"?>
<svg width="98px" height="23px" viewBox="0 0 98 23" version="1.1" xmlns="http://www.w3.org/2000/svg" xmlns:xlink="http://www.w3.org/1999/xlink">
    <!-- Generator: Sketch 51.2 (57519) - http://www.bohemiancoding.com/sketch -->
    <title>glamour-logo</title>
    <desc>Created with Sketch.</desc>
    <defs></defs>
    <g id="Final" stroke="none" stroke-width="1" fill="none" fill-rule="evenodd">
        <g id="1440-copy-4" transform="translate(-295.000000, -1007.000000)" fill="#113A50" fill-rule="nonzero">
            <g id="Group-6-Copy-3" transform="translate(295.000000, 991.000000)">
                <g id="glamour-logo" transform="translate(0.000000, 16.000000)">
                    <path d="M13.8113973,0.734865468 L11.9147507,0.734865468 L11.4005995,3.31080424 C10.6615721,1.76503286 9.79322783,0.412808085 7.12535445,0.412808085 C2.30427822,0.412808085 0.568109111,4.82431786 0.568109111,11.2004297 C0.568109111,16.1592809 1.72520895,22.5348725 7.57562625,22.5348725 C12.7508955,22.5348725 13.5543217,17.6727945 13.7791979,15.2576243 L10.1469015,14.5812518 C9.79322783,16.9641642 9.53615224,18.7029619 7.60730627,18.7029619 C6.48292514,18.7029619 5.96825461,18.1556205 5.61510026,17.1899686 C5.13262909,15.772708 5.10042973,12.6816855 5.10042973,10.9746253 C5.10042973,5.82274777 5.77557775,4.24471862 7.63950564,4.24471862 C8.89320358,4.24471862 9.95422467,4.79206009 9.98642404,8.49493956 L7.31855065,8.49493956 L7.31855065,12.0693083 L13.8113973,12.0693083 L13.8113973,0.734865468 Z" id="path172" transform="translate(7.189753, 11.473840) scale(-1, 1) rotate(-180.000000) translate(-7.189753, -11.473840) "></path>
                    <polygon id="path176" transform="translate(19.436004, 11.473634) scale(-1, 1) rotate(-180.000000) translate(-19.436004, -11.473634) " points="14.5180697 22.2128689 18.9215929 22.2128689 18.9215929 4.69482028 24.3539377 4.69482028 24.3539377 0.734398962 14.5180697 0.734398962"></polygon>
                    <path d="M30.1220382,8.84853111 L31.279138,14.7735545 C31.5362136,16.0940418 31.6644917,17.285498 31.7932892,18.1871546 C31.8898873,16.2548103 32.0503648,15.449927 32.243561,14.5805282 L33.4328602,8.84853111 L30.1220382,8.84853111 Z M29.8005639,22.2126118 L24.8823702,0.734141871 L28.8361409,0.734141871 L29.6717664,5.37093572 L33.914812,5.37093572 L34.7826369,0.734141871 L39.2183594,0.734141871 L34.3645645,22.2126118 L29.8005639,22.2126118 Z" id="path188" transform="translate(32.050365, 11.473377) scale(-1, 1) rotate(-180.000000) translate(-32.050365, -11.473377) "></path>
                    <path d="M39.571358,22.2128719 L45.6139328,22.2128719 L47.2535038,13.164048 C47.6393769,11.1677085 47.7998544,8.94556456 47.9286518,7.01322026 C48.0891293,9.36439524 48.5716005,12.4554177 48.8286761,13.6151365 L50.6609239,22.2128719 L56.5752206,22.2128719 L56.5752206,0.734402015 L52.3643743,0.734402015 L52.3643743,12.9710217 C52.3643743,14.3555042 52.3965737,15.2571609 52.5892506,19.4756443 C52.3965737,18.0911618 51.8824225,14.2909887 51.6570269,13.164048 L49.0535523,0.734402015 L46.2890808,0.734402015 L43.7822043,13.3570743 C43.4929293,14.8383302 43.171455,17.447047 42.9465788,19.4756443 C42.9787781,17.8013622 43.0748569,15.1609078 43.0748569,13.4861054 L43.0748569,0.734402015 L39.571358,0.734402015 L39.571358,22.2128719 Z" id="path192" transform="translate(48.073289, 11.473637) scale(-1, 1) rotate(-180.000000) translate(-48.073289, -11.473637) "></path>
                    <path d="M63.8800106,18.7032269 C64.7156361,18.7032269 65.1981073,18.3811695 65.5512617,17.3187443 C65.9698534,16.0305148 65.9698534,13.0034876 65.9698534,11.6830003 C65.9698534,11.3932007 65.9698534,7.62580566 65.7122585,6.14454982 C65.5195816,5.01760912 65.1659079,4.24446329 63.9766087,4.24446329 C62.8839076,4.24446329 62.4980346,4.95309358 62.2731583,5.82249243 C61.8872853,7.33600605 61.8872853,9.42911889 61.8872853,11.2646899 C61.8872853,13.9696597 61.951684,16.2880567 62.3375571,17.3510021 C62.6907114,18.316654 63.2048626,18.7032269 63.8800106,18.7032269 M63.9766087,22.5351374 C58.9301369,22.5351374 57.2266865,18.2843962 57.2266865,11.715258 C57.2266865,8.26992043 57.6442396,5.11386213 59.0262157,2.85998074 C59.2838106,2.44115006 60.5369892,0.412552747 63.8800106,0.412552747 C69.183558,0.412552747 70.6299328,4.98535135 70.6299328,11.3292054 C70.6299328,17.833828 69.151878,22.5351374 63.9766087,22.5351374" id="path196" transform="translate(63.928310, 11.473845) scale(-1, 1) rotate(-180.000000) translate(-63.928310, -11.473845) "></path>
                    <path d="M75.7964252,22.5349293 L75.7964252,8.84931154 C75.7964252,6.17659947 76.0213014,4.66308585 77.9818274,4.66308585 C80.0716702,4.66308585 80.1033502,6.5626521 80.1033502,9.07459563 L80.1033502,22.5349293 L83.8317253,22.5349293 L83.8317253,9.07459563 C83.8317253,5.27494285 83.6068491,0.734402015 77.6930718,0.734402015 C72.8070775,0.734402015 71.3923827,3.21408778 71.3923827,8.72028048 L71.3923827,22.5349293 L75.7964252,22.5349293 Z" id="path200" transform="translate(77.612054, 11.634666) scale(-1, 1) rotate(-180.000000) translate(-77.612054, -11.634666) "></path>
                    <path d="M88.8388828,18.8313735 L90.0603813,18.8313735 C91.4745568,18.8313735 92.4384604,18.0904854 92.4384604,15.8688618 C92.4384604,13.8402645 91.7633124,12.7128035 90.0603813,12.7128035 L88.8388828,12.7128035 L88.8388828,18.8313735 Z M84.5314384,0.734245929 L88.8388828,0.734245929 L88.8388828,9.17069255 L90.2208588,9.17069255 L92.6316566,0.734245929 L97.2605753,0.734245929 L94.0136327,10.0400914 C95.010255,10.6519484 96.8103035,11.7794094 96.8103035,15.836604 C96.8103035,16.6414873 96.8103035,19.1856886 94.8170588,21.0535174 C93.6926777,22.0836848 92.3740617,22.2127158 90.0603813,22.2127158 L84.5314384,22.2127158 L84.5314384,0.734245929 Z" id="path204" transform="translate(90.896007, 11.473481) scale(-1, 1) rotate(-180.000000) translate(-90.896007, -11.473481) "></path>
                </g>
            </g>
        </g>
    </g>
</svg>