<?xml version="1.0" encoding="UTF-8"?>
<svg width="77px" height="36px" viewBox="0 0 77 36" version="1.1" xmlns="http://www.w3.org/2000/svg" xmlns:xlink="http://www.w3.org/1999/xlink">
    <!-- Generator: Sketch 51.2 (57519) - http://www.bohemiancoding.com/sketch -->
    <title>cnn-logo</title>
    <desc>Created with Sketch.</desc>
    <defs></defs>
    <g id="Final" stroke="none" stroke-width="1" fill="none" fill-rule="evenodd">
        <g id="1440-copy-4" transform="translate(-295.000000, -845.000000)" fill="#113A50">
            <g id="Group-6-Copy-2" transform="translate(295.000000, 835.000000)">
                <g id="cnn-logo" transform="translate(0.000000, 10.000000)">
                    <path d="M24.3258706,0.19057058 L17.7176617,0.19057058 C7.94900498,0.19057058 0,8.09924965 0,17.8183492 C0,27.5374488 7.94900498,35.4461279 17.7176617,35.4461279 L30.1679104,35.4461279 C33.3283582,35.4461279 35.818408,32.9687103 35.818408,29.8242958 L35.818408,19.057058 L44.4378109,32.4922839 C45.5870647,34.2074191 47.5982587,35.3508426 49.8967662,35.3508426 C53.4402985,35.3508426 56.409204,32.4922839 56.409204,28.8714429 L56.409204,18.9617727 L65.028607,32.3969986 C66.1778607,34.1121338 68.1890547,35.2555573 70.4875622,35.2555573 C74.0310945,35.2555573 77,32.3969986 77,28.7761576 L77,0 L72.5945274,0 L72.5945274,28.7761576 C72.5945274,29.9195811 71.6368159,30.872434 70.4875622,30.872434 C69.8171642,30.872434 69.1467662,30.4912928 68.7636816,29.9195811 L53.4402985,6.00297327 C53.3445274,5.81240269 53.0572139,5.62183211 52.7699005,5.62183211 C52.2910448,5.62183211 52.0037313,6.00297327 52.0037313,6.38411443 L52.0037313,28.7761576 C52.0037313,29.9195811 51.0460199,30.872434 49.8967662,30.872434 C49.2263682,30.872434 48.5559701,30.4912928 48.1728856,29.9195811 L32.8495025,6.00297327 C32.7537313,5.81240269 32.4664179,5.62183211 32.1791045,5.62183211 C31.7002488,5.62183211 31.4129353,6.00297327 31.4129353,6.38411443 L31.4129353,29.5384399 C31.4129353,30.2054369 30.8383085,30.7771487 30.1679104,30.7771487 L17.7176617,30.7771487 C10.3432836,30.7771487 4.40547264,24.8694607 4.40547264,17.5324934 C4.40547264,10.195526 10.3432836,4.28783805 17.7176617,4.28783805 L24.3258706,4.28783805 L24.3258706,0.19057058 L24.3258706,0.19057058 Z" id="Fill-1"></path>
                    <path d="M24.9573999,25.0840902 C25.3397667,25.0840902 25.6265418,24.8001193 25.6265418,24.4214916 L25.6265418,6.43667219 C25.6265418,2.93436527 28.4942928,0 32.1267774,0 C34.4209782,0 36.4284039,1.13588333 37.5755043,2.93436527 L46.0831657,16.1863374 L46.0831657,6.43667219 C46.0831657,2.93436527 48.9509167,0 52.5834013,0 C54.8776022,0 56.8850279,1.13588333 58.0321283,2.93436527 L66.5397896,16.1863374 L66.5397896,0.094656944 L70.9370079,0.094656944 L70.9370079,28.681054 C70.9370079,29.1543388 70.5546411,29.4383096 70.1722743,29.4383096 C69.8854992,29.4383096 69.6943158,29.3436527 69.5031324,29.1543388 L54.2084603,5.30078887 C53.8260935,4.7328472 53.2525432,4.35421943 52.4878096,4.35421943 C51.3407092,4.35421943 50.3847922,5.30078887 50.3847922,6.43667219 L50.3847922,28.681054 C50.3847922,29.1543388 50.0024254,29.4383096 49.6200586,29.4383096 C49.3332835,29.4383096 49.1421001,29.3436527 48.9509167,29.1543388 L33.6562446,5.30078887 C33.2738778,4.7328472 32.7003276,4.35421943 31.935594,4.35421943 C30.7884936,4.35421943 29.8325766,5.30078887 29.8325766,6.43667219 L29.8325766,28.775711 C29.8325766,29.1543388 29.5458015,29.4383096 29.1634347,29.4383096 L17.4056555,29.4383096 C10.8098282,29.4383096 5.45669291,24.1375207 5.45669291,17.5115346 C5.45669291,10.8855486 10.8098282,5.5847597 17.4056555,5.5847597 L24.0014828,5.5847597 L24.0014828,10.0336361 L17.4056555,10.0336361 C13.1996207,10.0336361 9.85391114,13.3466291 9.85391114,17.5115346 C9.85391114,21.6764402 13.1996207,25.0840902 17.4056555,25.0840902 L24.9573999,25.0840902 L24.9573999,25.0840902 Z" id="Fill-3"></path>
                </g>
            </g>
        </g>
    </g>
</svg>